<svg id="Layer_1" data-name="Layer 1" xmlns="http://www.w3.org/2000/svg" width="603.02" height="135.87" viewBox="0 0 603.02 135.87"><defs><style>.cls-1{fill:#e00117;}</style></defs><title>BATA-RGB-en</title><path class="cls-1" d="M519.18,87.66c-4,6.36-8.16,11.82-13.78,16a38.11,38.11,0,0,1-6.11,3.67c-2.77.82-5.79,2.45-8.73,1.38a9.43,9.43,0,0,1-6.69-7.49c-1.05-11.42,5.8-20.71,11.42-29.11,2.76-4.08,6.6-6.93,10.1-10,0-.08.09-.08.09-.17,4.64-3,9.54-6.69,15.72-4.73,1.64.57,4.16,1.55,5.14,4.16,2.36,10-2.52,18.51-7.17,26.34M286,67.93c-2.61,13.45-10.76,25.68-20.39,34.73-.41.33-.89.65-1.29,1-4.24,3.1-9.05,6.52-15,5.71a9.15,9.15,0,0,1-6.93-7.76c-.66-13.78,8.32-24.62,15.91-33.67a33.68,33.68,0,0,1,6-5.63c6-4.48,14.35-7.66,20.21-.81,1.23,1.21,2,3.26,1.47,6.44M602.75,94.66l-6.68-7.17a2.24,2.24,0,0,0-3.19.82c-1.3,2.11-4.72,5.45-8,8.71-4.32,3.83-10,8.24-16.71,8.24a3.18,3.18,0,0,1-1.55-3.83c6.44-16.07,12.55-32.62,18.92-48.77.57-2,1.55-4.32.65-6.52a5.52,5.52,0,0,0-5.39-3.51c-6.53.9-12.47,2-19.16,1.63-5.71,0-11-2.61-16.63-1.63-5,1.31-5.78,7.5-9.21,10C531,49.33,526.2,45.75,520.56,44a64.51,64.51,0,0,0-15.17-2.2,68.72,68.72,0,0,0-52.92,22.33c-6.36,7.82-11.17,16.47-15.41,25.36-5,3.34-10.19,7.83-15.65,10.93-3.83,2.2-9.3,4.64-11.74,2.76-.81-.57-1-1.47-.48-2.68,3.58-11.75,8.71-23.07,12.47-34.66,1.14-2.85,1.79-6.19,4.07-8.24,4.65-1.14,10-1.63,14.6-3.34,3.18-1.31,7.75-1.8,8-6.11-1.29-3.51-1.87-11-6.6-9.46-2,.57-2.94,1-4.89,1.55s-7.58,2.61-6.44-1.22c3.75-10.53,6.44-16.47,9.95-25.28.48-1.87,1.06-4.4,0-6.19-1-2.2-3.09-2.93-5.31-3.5-3.58,0-7.09.65-9,3.59C421.42,15,416.61,21.37,408.46,25c-6.28,2.78-13.13,3.92-20,5.38-5.06,2.29-4.07,9.06-8.56,11.83-5.21.57-8.56-.34-13.69.4-3.43-.16-3.51,3.18-4.08,5l-2,5.3c-.65,1.64-1.06,4.32,2.52,4.08H373c1,.24,1.38,1,.57,2.85-3.75,9.22-6.77,18.26-10.53,27.48-6.91,6.85-14.17,10.93-22.58,16.47-4.16,2.2-8.32,5.13-13.22,4.4-1.62-.33-2.92-2.12-2.51-3.5l19.16-50.39c1.63-4.08,2.52-6.85,0-9.46a4.7,4.7,0,0,0-4.73-1.72,85.45,85.45,0,0,1-20.06,1.72c-6.62.33-15.24-5.22-19.9,1.55-1.88,2-2.52,5.71-5,6.94-5-3.5-9.38-6.61-15.33-8.4a71.51,71.51,0,0,0-14.5-2.12,64.67,64.67,0,0,0-24.63,3.75c-22.35,6.61-36.16,24.35-44,44.59-2.26,5.79-10.26,8.91-12.72,10.2-2,.65-4,1.87-6,1.54,2-5.54,2.61-10.59,2.78-18.42.16-8.8-5.3-20.14-15.9-24.62a62.82,62.82,0,0,1-6.12-2.77c9.3-2,19.65-6,24.95-14.19,5-6.93,4.65-17.12,0-24.38C173,6.86,158.39,2,143.63.34c-42.32-3.1-83.9,15.49-112.76,43.21-.57,1.71.41,3,1.55,4.07,2.37,2,4.32,5.55,7.75,5.38,7.58-6.43,14.92-12.47,23.89-17.61.57.16,1.47-.74,1.71.25a91.85,91.85,0,0,0-6,9.94C51,63.85,44.08,82.85,36.08,101.2c-3.35,6.27-6.93,13.53-15.16,13.69-7.26-1-12.07-6.68-16.55-11.41a1.33,1.33,0,0,0-1.63-.33c-1,.49-1.06,3.1-1.88,6.77-.49,3.18-1.71,6,.09,8.64,12.15,13.95,32.53,21,51.53,15.42,13.45-2.53,25.11-12.24,31.14-23.81,10.85-24.38,20.71-48.27,30.66-73.39,4.08-9.94,8.56-22.41,21.69-23.64a8.77,8.77,0,0,1,8,4.16c4,6.6,1.06,15.09-2.7,20.87-4.73,7-12.88,13.22-22.5,12.07-5.13-.73-5.13,5.87-7.09,9.62-.33,1.47,0,2.28,1.05,2.77,4.56.74,11.33-.25,15.09,3.59,5.3,5.78,4.16,15.89,2,23-3.51,8.64-6.61,19-14.76,23.8-5.54,3.75-11.42,3-17.13.09-2.44-.89-4.57-4.56-6.27-3.58-2.45,3.5-3.51,6.52-5.14,10.19-.73,2,.25,2.28,3.26,4.65a55.63,55.63,0,0,0,34.57,11.33c25.36.25,46.8-12.06,66.78-24.3l1.88-.07c3.18,8.47,8.8,17.28,18.1,20.46,18.83,8.72,39.55-.89,53.17-12.72,0-.08.07-.08.15-.17,1.72-1.22,3.27-3.58,5.3-3.83a21,21,0,0,0,6.94,14.35c11.82,9.3,29,4.57,41.26-.81,11.33-5.14,23-10.85,33.26-17.78.57-.4,2-1.55,2.2-.07a25.61,25.61,0,0,0-.9,10.26,15.24,15.24,0,0,0,12.8,13c19,3.5,34.65-6.94,49.91-14.28a62.24,62.24,0,0,0,6.44-3.67c4.24-2.61,7.49-5,11.89-7.9a2.43,2.43,0,0,1,2-.25c1.55,11.5,9.46,20.23,20.14,24.14,12.88,4.81,29.19,1.22,40.27-6.36a54.33,54.33,0,0,0,9.47-7c1.72-1.55,3.43-3,5.3-4.41l.41.49c.82,4.65,1.88,9,5.13,12.56,7.34,8.08,20.46,8.48,30.82,5.38a127.12,127.12,0,0,0,54.87-34.25c.81-1.05,1.47-2.44.81-3.75"/></svg>